<?xml version="1.0" standalone="no"?>
<!DOCTYPE svg PUBLIC "-//W3C//DTD SVG 20010904//EN"
 "http://www.w3.org/TR/2001/REC-SVG-20010904/DTD/svg10.dtd">
<svg version="1.0" xmlns="http://www.w3.org/2000/svg"
 width="128.000000pt" height="128.000000pt" viewBox="0 0 128.000000 128.000000"
 preserveAspectRatio="xMidYMid meet">

<g transform="translate(0.000000,128.000000) scale(0.100000,-0.100000)"
fill="#000000" stroke="none">
<path d="M506 1242 c12 -77 -13 -148 -142 -407 -68 -137 -131 -277 -139 -310
-28 -114 -13 -225 47 -337 31 -58 141 -188 151 -178 3 3 -1 32 -9 65 -31 132
-14 306 38 409 20 39 114 146 128 146 4 0 10 -37 13 -82 9 -126 81 -329 122
-345 8 -3 44 13 80 36 l65 40 0 -37 c0 -20 -9 -77 -20 -126 -26 -115 -26 -115
11 -80 80 76 156 199 194 314 22 66 24 182 6 260 -14 56 -89 230 -100 230 -3
0 -7 -28 -9 -63 -2 -34 -10 -89 -18 -121 -16 -61 -69 -175 -99 -211 -16 -20
-16 -20 -11 5 21 89 28 178 23 280 -7 138 -26 213 -74 300 -41 73 -157 193
-221 228 l-42 24 6 -40z"/>
</g>
</svg>
